<svg width="37" height="35" viewBox="0 0 37 35" fill="none" xmlns="http://www.w3.org/2000/svg">
<path d="M18.6104 4.67289L21.1278 12.375C21.4638 13.4029 22.4226 14.0983 23.5041 14.0983H31.6316C32.1167 14.0983 32.3176 14.7196 31.9244 15.0036L25.3643 19.7417C24.4829 20.3783 24.1141 21.5116 24.4518 22.545L26.9611 30.2224C27.1115 30.6825 26.5856 31.0665 26.1931 30.7831L19.5989 26.0203C18.7251 25.3892 17.5452 25.3892 16.6714 26.0203L10.0772 30.7831C9.68474 31.0665 9.15877 30.6825 9.30916 30.2224L11.8185 22.545C12.1562 21.5116 11.7874 20.3783 10.906 19.7417L4.34593 15.0036C3.95269 14.7196 4.15361 14.0983 4.63868 14.0983H12.7662C13.8477 14.0983 14.8065 13.4029 15.1425 12.375L17.6599 4.67289C17.8101 4.21333 18.4602 4.21334 18.6104 4.67289Z" stroke="#8E8E93" stroke-width="2"/>
<path d="M16.7094 4.36222C17.16 2.98356 19.1103 2.98356 19.5609 4.36221L22.0783 12.0643C22.2799 12.6811 22.8552 13.0983 23.5041 13.0983L31.6316 13.0983C33.0868 13.0983 33.6896 14.9623 32.5099 15.8143L25.9499 20.5524C25.421 20.9343 25.1997 21.6143 25.4024 22.2344L27.9117 29.9117C28.3628 31.2921 26.7849 32.4441 25.6076 31.5937L19.0134 26.831C18.4891 26.4523 17.7812 26.4523 17.2569 26.831L10.6627 31.5937C9.48539 32.4441 7.90747 31.2921 8.35865 29.9117L10.8679 22.2344C11.0706 21.6143 10.8493 20.9343 10.3204 20.5524L3.76041 15.8143C2.58071 14.9623 3.18345 13.0983 4.63868 13.0983L12.7662 13.0983C13.4151 13.0983 13.9904 12.6811 14.192 12.0643L16.7094 4.36222Z" fill="#8E8E93"/>
</svg>
