<svg width="37" height="35" viewBox="0 0 37 35" fill="none" xmlns="http://www.w3.org/2000/svg">
<path d="M18.7077 4.87845L21.2251 12.5806C21.5611 13.6085 22.5199 14.3039 23.6014 14.3039H31.7289C32.214 14.3039 32.4149 14.9252 32.0217 15.2092L25.4616 19.9473C24.5802 20.5839 24.2113 21.7172 24.5491 22.7506L27.0584 30.428C27.2088 30.8881 26.6828 31.2721 26.2904 30.9886L19.6962 26.2259C18.8224 25.5948 17.6425 25.5948 16.7687 26.2259L10.1745 30.9886C9.78203 31.2721 9.25606 30.8881 9.40645 30.428L11.9158 22.7506C12.2535 21.7172 11.8846 20.5839 11.0032 19.9473L4.44322 15.2092C4.04998 14.9252 4.2509 14.3039 4.73597 14.3039H12.8635C13.945 14.3039 14.9038 13.6085 15.2398 12.5806L17.7572 4.87845C17.9074 4.4189 18.5575 4.4189 18.7077 4.87845Z" stroke="#8E8E93" stroke-width="2"/>
<path d="M13.1054 13.3042C13.9338 13.3042 14.6054 13.9758 14.6054 14.8042V21.3994V27.8319C14.6054 28.2931 14.3932 28.7287 14.0301 29.013L10.9065 31.4584C9.73952 32.372 8.0956 31.22 8.55603 29.8113L10.9652 22.4403C11.1679 21.8202 10.9466 21.1402 10.4177 20.7583L3.85769 16.0202C2.67798 15.1681 3.28072 13.3042 4.73595 13.3042H13.1054Z" fill="#8E8E93"/>
</svg>
