<svg width="37" height="35" viewBox="0 0 37 35" fill="none" xmlns="http://www.w3.org/2000/svg">
<path d="M19.0699 4.67289L21.5873 12.375C21.9233 13.4029 22.8821 14.0983 23.9636 14.0983H32.0911C32.5762 14.0983 32.7771 14.7196 32.3839 15.0036L25.8238 19.7417C24.9424 20.3783 24.5735 21.5116 24.9113 22.545L27.4206 30.2224C27.571 30.6825 27.045 31.0665 26.6526 30.7831L20.0584 26.0203C19.1846 25.3892 18.0047 25.3892 17.1308 26.0203L10.5367 30.7831C10.1442 31.0665 9.61824 30.6825 9.76864 30.2224L12.2779 22.545C12.6157 21.5116 12.2468 20.3783 11.3654 19.7417L4.8054 15.0036C4.41216 14.7196 4.61308 14.0983 5.09815 14.0983H13.2257C14.3071 14.0983 15.266 13.4029 15.602 12.375L18.1194 4.67289C18.2696 4.21333 18.9197 4.21334 19.0699 4.67289Z" stroke="#8E8E93" stroke-width="2"/>
<path d="M17.1688 4.36224C17.6194 2.98359 19.5698 2.98358 20.0204 4.36224L22.5378 12.0643C22.7394 12.6811 23.3147 13.0983 23.9636 13.0983H24.0216C24.85 13.0983 25.5216 13.7699 25.5216 14.5983V21.1936V28.131C25.5216 29.3411 24.1623 30.0531 23.1675 29.3641L19.4668 26.8008C18.9441 26.4388 18.2499 26.4456 17.7345 26.8179L11.1221 31.5938C9.94484 32.4441 8.36692 31.2922 8.8181 29.9118L11.3274 22.2344C11.5301 21.6143 11.3087 20.9344 10.7799 20.5524L4.21987 15.8143C3.04017 14.9623 3.64291 13.0983 5.09814 13.0983L13.2257 13.0983C13.8745 13.0983 14.4498 12.6811 14.6514 12.0643L17.1688 4.36224Z" fill="#8E8E93"/>
</svg>
