<svg width="106" height="106" viewBox="0 0 106 106" fill="none" xmlns="http://www.w3.org/2000/svg">
<path d="M53 0.993445L69.7019 29.6688L69.8128 29.8592L70.0281 29.9058L102.461 36.9291L80.3504 61.6747L80.2036 61.839L80.2258 62.0582L83.5687 95.0742L53.2016 81.6925L53 81.6036L52.7984 81.6925L22.4313 95.0742L25.7742 62.0582L25.7964 61.839L25.6495 61.6747L3.53883 36.9291L35.9719 29.9058L36.1872 29.8592L36.2981 29.6688L53 0.993445Z" stroke="#8E8E93"/>
<path d="M53 0L70.1339 29.4172L80.7233 32V62.0078L84.1526 95.8779L53 82.15L21.8474 95.8779L25.2767 62.0078L2.59399 36.6221L35.866 29.4172L53 0Z" fill="#8E8E93"/>
</svg>
