<svg width="38" height="35" viewBox="0 0 38 35" fill="none" xmlns="http://www.w3.org/2000/svg">
<path d="M19.3889 5.38089L21.9062 13.083C22.2422 14.1109 23.2011 14.8063 24.2825 14.8063H32.4101C32.8951 14.8063 33.0961 15.4276 32.7028 15.7117L26.1428 20.4497C25.2614 21.0863 24.8925 22.2196 25.2303 23.2531L27.7396 30.9304C27.89 31.3905 27.364 31.7745 26.9716 31.4911L20.3774 26.7283C19.5036 26.0972 18.3236 26.0972 17.4498 26.7283L10.8556 31.4911C10.4632 31.7745 9.93721 31.3905 10.0876 30.9304L12.5969 23.2531C12.9347 22.2196 12.5658 21.0863 11.6844 20.4497L5.12437 15.7117C4.73113 15.4276 4.93205 14.8063 5.41712 14.8063H13.5446C14.6261 14.8063 15.585 14.1109 15.9209 13.083L18.4383 5.3809C18.5885 4.92134 19.2386 4.92134 19.3889 5.38089Z" stroke="#8E8E93" stroke-width="2"/>
</svg>
