<svg width="37" height="36" viewBox="0 0 37 36" fill="none" xmlns="http://www.w3.org/2000/svg">
<path d="M18.9294 5.53763L21.4468 13.2397C21.7828 14.2677 22.7416 14.9631 23.8231 14.9631H31.9506C32.4357 14.9631 32.6366 15.5844 32.2433 15.8684L25.6833 20.6065C24.8019 21.2431 24.433 22.3763 24.7708 23.4098L27.2801 31.0871C27.4305 31.5473 26.9045 31.9313 26.5121 31.6478L19.9179 26.8851C19.0441 26.254 17.8642 26.254 16.9903 26.8851L10.3961 31.6478C10.0037 31.9313 9.47774 31.5473 9.62813 31.0871L12.1374 23.4098C12.4752 22.3763 12.1063 21.2431 11.2249 20.6065L4.6649 15.8684C4.27166 15.5844 4.47258 14.9631 4.95765 14.9631H13.0852C14.1666 14.9631 15.1255 14.2677 15.4615 13.2397L17.9789 5.53763C18.1291 5.07808 18.7792 5.07808 18.9294 5.53763Z" stroke="#8E8E93" stroke-width="2"/>
<path d="M10.0271 13.9634C10.8555 13.9634 11.5271 14.635 11.5271 15.4634V22.0586V30.3255C11.5271 30.6744 11.3886 31.0091 11.142 31.256V31.256C10.1628 32.2364 8.52831 31.2336 8.95881 29.9164L11.5271 22.0586L4.07937 16.6794C2.89966 15.8273 3.5024 13.9634 4.95763 13.9634H10.0271Z" fill="#8E8E93"/>
</svg>
