<svg width="38" height="35" viewBox="0 0 38 35" fill="none" xmlns="http://www.w3.org/2000/svg">
<path d="M19.551 4.67289L22.0684 12.375C22.4043 13.4029 23.3632 14.0983 24.4446 14.0983H32.5722C33.0573 14.0983 33.2582 14.7196 32.8649 15.0036L26.3049 19.7417C25.4235 20.3783 25.0546 21.5116 25.3924 22.545L27.9017 30.2224C28.0521 30.6825 27.5261 31.0665 27.1337 30.7831L20.5395 26.0203C19.6657 25.3892 18.4857 25.3892 17.6119 26.0203L11.0177 30.7831C10.6253 31.0665 10.0993 30.6825 10.2497 30.2224L12.759 22.545C13.0968 21.5116 12.7279 20.3783 11.8465 19.7417L5.28648 15.0036C4.89324 14.7196 5.09416 14.0983 5.57923 14.0983H13.7068C14.7882 14.0983 15.7471 13.4029 16.083 12.375L18.6004 4.67289C18.7506 4.21333 19.4008 4.21334 19.551 4.67289Z" stroke="#8E8E93" stroke-width="2"/>
<path d="M17.6499 4.36224C18.1005 2.98358 20.0509 2.98358 20.5015 4.36224L23.2826 12.8712C23.3318 13.0217 23.3568 13.179 23.3568 13.3373V17.8054V22.0919V26.2322C23.3568 27.4265 22.0291 28.1418 21.0318 27.4849L19.94 26.7659C19.4197 26.4232 18.7418 26.4379 18.2367 26.8026L11.6032 31.5938C10.4259 32.4441 8.848 31.2922 9.29918 29.9118L11.8085 22.2344C12.0112 21.6143 11.7898 20.9344 11.261 20.5524L4.70095 15.8143C3.52125 14.9623 4.12399 13.0983 5.57922 13.0983L13.7067 13.0983C14.3556 13.0983 14.9309 12.6811 15.1325 12.0643L17.6499 4.36224Z" fill="#8E8E93"/>
</svg>
