<svg width="38" height="36" viewBox="0 0 38 36" fill="none" xmlns="http://www.w3.org/2000/svg">
<path d="M19.5294 5.53763L22.0467 13.2397C22.3827 14.2677 23.3416 14.9631 24.423 14.9631H32.5506C33.0356 14.9631 33.2366 15.5844 32.8433 15.8684L26.2833 20.6065C25.4019 21.2431 25.033 22.3763 25.3708 23.4098L27.8801 31.0871C28.0305 31.5473 27.5045 31.9313 27.1121 31.6478L20.5179 26.8851C19.6441 26.254 18.4641 26.254 17.5903 26.8851L10.9961 31.6478C10.6037 31.9313 10.0777 31.5473 10.2281 31.0871L12.7374 23.4098C13.0752 22.3763 12.7063 21.2431 11.8249 20.6065L5.26487 15.8684C4.87163 15.5844 5.07255 14.9631 5.55763 14.9631H13.6851C14.7666 14.9631 15.7255 14.2677 16.0614 13.2397L18.5788 5.53763C18.729 5.07808 19.3792 5.07808 19.5294 5.53763Z" stroke="#8E8E93" stroke-width="2"/>
<path d="M16.1283 9.81632C16.6585 8.19412 19.0541 8.57567 19.0541 10.2823V14.7134V18.6702V26.2945C19.0541 26.7761 18.8228 27.2285 18.4323 27.5105L11.5816 32.4585C10.4043 33.3088 8.8264 32.1569 9.27757 30.7765L11.7869 23.0991C11.9895 22.4791 11.7682 21.7991 11.2394 21.4171L4.67934 16.6791C3.49964 15.827 4.10238 13.9631 5.55761 13.9631L13.6851 13.9631C14.334 13.9631 14.9093 13.5459 15.1109 12.9291L16.1283 9.81632Z" fill="#8E8E93"/>
</svg>
